<?xml version="1.0" encoding="utf-8"?>
<!-- Generator: Adobe Illustrator 19.2.1, SVG Export Plug-In . SVG Version: 6.00 Build 0)  -->
<svg version="1.1" id="Layer_1" xmlns="http://www.w3.org/2000/svg" xmlns:xlink="http://www.w3.org/1999/xlink" x="0px" y="0px"
	 viewBox="0 0 230 227" style="enable-background:new 0 0 230 227;" xml:space="preserve">
<style type="text/css">
	.st0{fill:none;stroke:#4A4B56;stroke-width:2.9389;stroke-miterlimit:10;}
	.st1{fill:none;stroke:#4A4B56;stroke-width:2.9389;stroke-linecap:round;stroke-linejoin:round;stroke-miterlimit:10;}
	.st2{fill:none;stroke:#4A4B56;stroke-width:2.2868;stroke-linecap:round;stroke-miterlimit:10;}
	.st3{fill:#4A4B56;}
	.st4{font-family:'Montserrat-Regular';}
	.st5{font-size:25.2873px;}
	.st6{fill:none;stroke:#4A4B56;stroke-width:3.4174;stroke-linecap:round;stroke-linejoin:round;stroke-miterlimit:10;}
</style>
<g>
	<path class="st0" d="M83.6,103.2L83.6,103.2c-9.1,0-16.6-7.5-16.6-16.6v0c0-9.1,7.5-16.6,16.6-16.6h0c9.1,0,16.6,7.5,16.6,16.6v0
		C100.3,95.7,92.8,103.2,83.6,103.2z"/>
	<rect x="111.7" y="71.6" class="st0" width="31.5" height="31.5"/>
	<polygon class="st0" points="163.4,102.3 154.2,86.5 163.4,70.7 181.6,70.7 190.8,86.5 181.6,102.3 	"/>
	<path class="st0" d="M182.7,158h-16.8c-4.5,0-8.2-3.7-8.2-8.2V133c0-4.5,3.7-8.2,8.2-8.2h16.8c4.5,0,8.2,3.7,8.2,8.2v16.8
		C190.9,154.3,187.2,158,182.7,158z"/>
	<polygon class="st0" points="118,158.1 108.9,142.3 118,126.5 136.3,126.5 145.4,142.3 136.3,158.1 	"/>
	<polygon class="st1" points="78.2,126.5 63.9,158.1 97.1,158.1 	"/>
	<line class="st2" x1="46.3" y1="115.1" x2="205.6" y2="115.1"/>
	<text transform="matrix(1 0 0 1 27.8517 98.1944)" class="st3 st4 st5">A</text>
	<text transform="matrix(1 0 0 1 29.8009 149.8878)" class="st3 st4 st5">B</text>
	<path class="st6" d="M115,220L115,220C56.4,220,8.5,172.1,8.5,113.5v0C8.5,54.9,56.4,7,115,7h0c58.6,0,106.5,47.9,106.5,106.5v0
		C221.5,172.1,173.6,220,115,220z"/>
</g>
</svg>
