<?xml version="1.0" encoding="utf-8"?>
<!-- Generator: Adobe Illustrator 19.2.1, SVG Export Plug-In . SVG Version: 6.00 Build 0)  -->
<svg version="1.1" id="Layer_1" xmlns="http://www.w3.org/2000/svg" xmlns:xlink="http://www.w3.org/1999/xlink" x="0px" y="0px"
	 viewBox="0 0 230 227" style="enable-background:new 0 0 230 227;" xml:space="preserve">
<style type="text/css">
	.st0{fill:none;stroke:#4A4B56;stroke-width:3.3046;stroke-linejoin:round;stroke-miterlimit:10;}
	.st1{fill:#4A4B56;}
</style>
<g>
	<path class="st0" d="M115,216.5L115,216.5c-56.7,0-103-46.3-103-103v0c0-56.6,46.3-103,103-103h0c56.6,0,103,46.3,103,103v0
		C218,170.2,171.7,216.5,115,216.5z"/>
	<g>
		<path class="st1" d="M124.8,77.8c0,0-0.5-0.1-1.4-0.4c-0.5-0.1-1-0.3-1.7-0.5c-0.3-0.1-0.7-0.2-1.1-0.3c-0.3-0.1-0.7-0.1-1.1-0.2
			c-0.8-0.1-1.6-0.3-2.6-0.4c-1-0.1-2.1-0.1-3.2-0.2c-1.1,0-2.4,0.1-3.7,0.1c-1.3,0.1-2.6,0.3-4,0.5c-0.7,0.1-1.4,0.3-2.1,0.5
			c-0.7,0.2-1.5,0.3-2.2,0.6c-1.4,0.5-3,0.9-4.5,1.7c-3,1.2-6,3.2-8.8,5.4c-0.7,0.6-1.4,1.2-2.1,1.8c-0.7,0.6-1.3,1.3-1.9,2l-1,1
			l-0.9,1.1c-0.6,0.8-1.2,1.5-1.7,2.3c-0.5,0.8-1,1.6-1.5,2.4L79,95.8l-0.3,0.6L78,97.8c-0.4,0.9-0.9,1.7-1.2,2.7l-0.5,1.4l-0.3,0.7
			l-0.1,0.3l-0.1,0.2l0,0.1l0,0c0,0,0,0.1,0,0c-1.2,4-1.8,7.7-1.9,11.6c0,1,0.1,1.9,0.1,2.9L74,119l0.2,1.4c0.1,0.9,0.2,1.9,0.4,2.8
			c0.2,0.9,0.4,1.8,0.7,2.7c1,3.6,2.4,7,4.2,9.9c0.8,1.5,1.9,2.8,2.8,4.2c0.5,0.7,1,1.2,1.5,1.8c0.5,0.6,1,1.2,1.5,1.7
			c1.1,1,2.1,2.1,3.2,2.9c1.1,0.8,2.1,1.7,3.1,2.4c1,0.7,2,1.3,2.9,1.8c0.9,0.5,1.8,0.9,2.6,1.3c0.4,0.2,0.8,0.4,1.1,0.6
			c0.4,0.2,0.7,0.3,1,0.4c0.6,0.2,1.2,0.5,1.6,0.6c0.9,0.3,1.4,0.5,1.4,0.5s-0.5-0.2-1.4-0.4c-0.5-0.1-1-0.3-1.7-0.5
			c-0.3-0.1-0.7-0.2-1.1-0.3c-0.4-0.2-0.8-0.3-1.2-0.5c-0.8-0.4-1.7-0.7-2.7-1.2c-0.9-0.5-2-1.1-3.1-1.7c-1.1-0.6-2.1-1.5-3.3-2.2
			c-1.1-0.8-2.2-1.8-3.4-2.8c-0.6-0.5-1.1-1.1-1.7-1.7c-0.5-0.6-1.2-1.1-1.7-1.8c-1-1.3-2.2-2.6-3.1-4.2c-2-2.9-3.6-6.4-4.9-10.1
			c-0.3-0.9-0.6-1.9-0.8-2.8c-0.3-1-0.4-2-0.6-2.9l-0.3-1.5l-0.1-1.5c-0.1-1-0.2-2-0.2-3.1c-0.1-4.1,0.5-8.6,1.4-12.4l1-3.1
			c0.3-1,0.7-2,1.2-3l0.6-1.5l0.3-0.7l0.4-0.7c0.5-0.9,1-1.8,1.5-2.8c0.5-0.9,1.2-1.7,1.8-2.6l0.9-1.3l1-1.2c0.7-0.8,1.3-1.6,2-2.3
			c0.7-0.7,1.5-1.4,2.2-2.1c3-2.6,6.2-5,9.6-6.5c1.6-0.9,3.3-1.5,5-2.2c0.8-0.3,1.7-0.5,2.5-0.8c0.8-0.2,1.6-0.5,2.4-0.7
			c1.6-0.3,3.1-0.7,4.6-0.8c1.5-0.1,2.9-0.3,4.2-0.3c1.3,0,2.6,0,3.7,0c1.2,0.1,2.3,0.2,3.3,0.3c0.5,0.1,1,0.1,1.4,0.2
			c0.4,0.1,0.8,0.2,1.1,0.2c0.7,0.1,1.3,0.3,1.7,0.4c0.9,0.2,1.4,0.3,1.4,0.3c1.8,0.4,3,2.2,2.6,4c-0.4,1.8-2.2,3-4,2.6
			C124.9,77.9,124.9,77.8,124.8,77.8z"/>
	</g>
	<g>
		<path class="st1" d="M103.8,150.5c0,0,0.5,0.1,1.4,0.4c0.5,0.1,1,0.3,1.7,0.5c0.3,0.1,0.7,0.2,1.1,0.3c0.3,0.1,0.7,0.1,1.1,0.2
			c0.8,0.1,1.6,0.3,2.6,0.4c1,0.1,2.1,0.1,3.2,0.2c1.1,0,2.4-0.1,3.7-0.1c1.3-0.1,2.6-0.3,4-0.5c0.7-0.1,1.4-0.3,2.1-0.5
			c0.7-0.2,1.5-0.3,2.2-0.6c1.4-0.5,3-0.9,4.5-1.7c3-1.2,6-3.2,8.8-5.4c0.7-0.6,1.4-1.2,2.1-1.8c0.7-0.6,1.3-1.3,1.9-2l1-1l0.9-1.1
			c0.6-0.8,1.2-1.5,1.7-2.3c0.5-0.8,1-1.6,1.5-2.4l0.4-0.6l0.3-0.6l0.6-1.3c0.4-0.9,0.9-1.7,1.2-2.7l0.5-1.4l0.3-0.7l0.1-0.3
			l0.1-0.2l0-0.1l0,0c0,0,0-0.1,0,0c1.2-4,1.8-7.7,1.9-11.6c0-1-0.1-1.9-0.1-2.9l-0.1-1.4l-0.2-1.4c-0.1-0.9-0.2-1.9-0.4-2.8
			c-0.2-0.9-0.4-1.8-0.7-2.7c-1-3.6-2.4-7-4.2-9.9c-0.8-1.5-1.9-2.8-2.8-4.2c-0.5-0.7-1-1.2-1.5-1.8c-0.5-0.6-1-1.2-1.5-1.7
			c-1.1-1-2.1-2.1-3.2-2.9c-1.1-0.8-2.1-1.7-3.1-2.4c-1-0.7-2-1.3-2.9-1.8c-0.9-0.5-1.8-0.9-2.6-1.3c-0.4-0.2-0.8-0.4-1.1-0.6
			c-0.4-0.2-0.7-0.3-1-0.4c-0.6-0.2-1.2-0.5-1.6-0.6c-0.9-0.3-1.4-0.5-1.4-0.5s0.5,0.2,1.4,0.4c0.5,0.1,1,0.3,1.7,0.5
			c0.3,0.1,0.7,0.2,1.1,0.3c0.4,0.2,0.8,0.3,1.2,0.5c0.8,0.4,1.7,0.7,2.7,1.2c0.9,0.5,2,1.1,3.1,1.7c1.1,0.6,2.1,1.5,3.3,2.2
			c1.1,0.8,2.2,1.8,3.4,2.8c0.6,0.5,1.1,1.1,1.7,1.7c0.5,0.6,1.2,1.1,1.7,1.8c1,1.3,2.2,2.6,3.1,4.2c2,2.9,3.6,6.4,4.9,10.1
			c0.3,0.9,0.6,1.9,0.8,2.8c0.3,1,0.4,2,0.6,2.9l0.3,1.5l0.1,1.5c0.1,1,0.2,2,0.2,3.1c0.1,4.1-0.5,8.6-1.4,12.4l-1,3.1
			c-0.3,1-0.7,2-1.2,3l-0.6,1.5l-0.3,0.7l-0.4,0.7c-0.5,0.9-1,1.8-1.5,2.8c-0.5,0.9-1.2,1.7-1.8,2.6l-0.9,1.3l-1,1.2
			c-0.7,0.8-1.3,1.6-2,2.3c-0.7,0.7-1.5,1.4-2.2,2.1c-3,2.6-6.2,5-9.6,6.5c-1.6,0.9-3.3,1.5-5,2.2c-0.8,0.3-1.7,0.5-2.5,0.8
			c-0.8,0.2-1.6,0.5-2.4,0.7c-1.6,0.3-3.1,0.7-4.6,0.8c-1.5,0.1-2.9,0.3-4.2,0.3c-1.3,0-2.6,0-3.7,0c-1.2-0.1-2.3-0.2-3.3-0.3
			c-0.5-0.1-1-0.1-1.4-0.2c-0.4-0.1-0.8-0.2-1.1-0.2c-0.7-0.1-1.3-0.3-1.7-0.4c-0.9-0.2-1.4-0.3-1.4-0.3c-1.8-0.4-3-2.2-2.6-4
			c0.4-1.8,2.2-3,4-2.6C103.7,150.5,103.7,150.5,103.8,150.5z"/>
	</g>
</g>
</svg>
