<?xml version="1.0" encoding="utf-8"?>
<!-- Generator: Adobe Illustrator 19.2.1, SVG Export Plug-In . SVG Version: 6.00 Build 0)  -->
<svg version="1.1" id="Layer_1" xmlns="http://www.w3.org/2000/svg" xmlns:xlink="http://www.w3.org/1999/xlink" x="0px" y="0px"
	 viewBox="0 0 230 227" style="enable-background:new 0 0 230 227;" xml:space="preserve">
<style type="text/css">
	.st0{fill:none;stroke:#4A4B56;stroke-width:3.3815;stroke-linecap:round;stroke-linejoin:round;stroke-miterlimit:10;}
	.st1{fill:none;stroke:#4A4B56;stroke-width:3.911;stroke-linecap:round;stroke-linejoin:round;stroke-miterlimit:10;}
</style>
<path class="st0" d="M115,218.9L115,218.9c-58,0-105.4-47.4-105.4-105.4l0,0C9.6,55.5,57,8.1,115,8.1l0,0
	c58,0,105.4,47.4,105.4,105.4l0,0C220.4,171.5,173,218.9,115,218.9z"/>
<g>
	<path class="st1" d="M118,126l5.9-5.9c7.2-7.2,7.2-18.9,0-26c-7.2-7.2-18.9-7.2-26,0l-30.2,30.2c-3.5,3.5-5.4,8.1-5.4,13
		c0,4.9,1.9,9.5,5.4,13c3.6,3.6,8.3,5.4,13,5.4c4.7,0,9.4-1.8,13-5.4l5.9-5.9"/>
	<path class="st1" d="M112,101l-5.9,5.9c-7.2,7.2-7.2,18.9,0,26c7.2,7.2,18.9,7.2,26,0l30.2-30.2c3.5-3.5,5.4-8.1,5.4-13
		c0-4.9-1.9-9.5-5.4-13c-3.6-3.6-8.3-5.4-13-5.4c-4.7,0-9.4,1.8-13,5.4l-5.9,5.9"/>
</g>
</svg>
