<?xml version="1.0" encoding="utf-8"?>
<!-- Generator: Adobe Illustrator 19.2.1, SVG Export Plug-In . SVG Version: 6.00 Build 0)  -->
<svg version="1.1" id="Layer_1" xmlns="http://www.w3.org/2000/svg" xmlns:xlink="http://www.w3.org/1999/xlink" x="0px" y="0px"
	 viewBox="0 0 230 227" style="enable-background:new 0 0 230 227;" xml:space="preserve">
<style type="text/css">
	.st0{fill:#4A4B56;}
	.st1{fill:none;stroke:#4A4B56;stroke-width:3.3339;stroke-linecap:round;stroke-linejoin:round;stroke-miterlimit:10;}
</style>
<g>
	<g>
		<path class="st0" d="M161.5,65.7c0-0.1,0-0.1,0-0.2c0-0.1,0-0.1,0-0.2c0,0,0-0.1,0-0.1c0,0,0,0,0,0c0,0,0,0,0,0
			c0-0.1-0.1-0.1-0.1-0.2c0,0,0-0.1-0.1-0.1c0,0-0.1-0.1-0.1-0.1c0,0,0,0,0,0c0,0,0,0,0,0c0,0,0,0,0,0c0,0,0,0-0.1-0.1
			c0,0-0.1-0.1-0.1-0.1c0,0-0.1-0.1-0.1-0.1c0,0-0.1,0-0.1-0.1c0,0,0,0,0,0c0,0,0,0,0,0c0,0-0.1,0-0.1,0c0,0-0.1,0-0.1,0
			c-0.1,0-0.1,0-0.2-0.1c0,0,0,0,0,0c0,0,0,0-0.1,0c0,0,0,0-0.1,0c-0.1,0-0.1,0-0.2,0c0,0-0.1,0-0.1,0c-0.1,0-0.1,0-0.2,0
			c0,0-0.1,0-0.1,0c0,0,0,0,0,0c0,0,0,0,0,0c0,0-0.1,0-0.1,0L43.5,109c-0.6,0.2-1,0.8-1,1.5c0,0.7,0.4,1.3,1,1.5l5-1.5l101.3-39.1
			l-68.6,52.1L64.6,117c-1,0.8-2.1,1.5-3.3,2.2l18.9,7.6l11.7,34.4c0,0.1,0.1,0.1,0.1,0.2c0,0.1,0.1,0.1,0.1,0.2
			c0.1,0.2,0.2,0.3,0.4,0.4c0,0,0,0,0,0c0.1,0,0.1,0.1,0.2,0.1c0.1,0,0.2,0.1,0.3,0.1c0.2,0.1,0.3,0.1,0.5,0.1c0,0,0,0,0,0
			c0,0,0,0,0.1,0c0,0,0,0,0.1,0c0.1,0,0.3,0,0.4-0.1c0,0,0.1,0,0.1,0c0.1-0.1,0.2-0.1,0.3-0.2c0,0,0,0,0.1,0
			c0.1-0.1,0.2-0.2,0.3-0.3l15.9-22.6l35.6,14.2c0.5,0.2,1,0.1,1.4-0.1c0.4-0.2,0.7-0.7,0.8-1.2l13.1-85.7c0,0,0-0.1,0-0.1
			c0-0.1,0-0.1,0-0.2c0,0,0,0,0,0C161.5,65.8,161.5,65.7,161.5,65.7z M93.1,154.7L83.4,126l64.2-48.8l-48.6,54.5c0,0,0,0,0,0
			c-0.1,0.1-0.2,0.3-0.3,0.5c0,0,0,0.1,0,0.1c0,0,0,0.1,0,0.1L93.1,154.7z M97,152.6l4.2-17.5l6.3,2.5L97,152.6z M145.5,149.3
			l-42.6-17L157.5,71L145.5,149.3z"/>
	</g>
</g>
<path class="st1" d="M115.1,217.1L115.1,217.1c-57.2,0-103.9-46.8-103.9-103.9v0C11.2,56.1,57.9,9.3,115.1,9.3h0
	C172.2,9.3,219,56.1,219,113.2v0C219,170.4,172.2,217.1,115.1,217.1z"/>
</svg>
