<?xml version="1.0" encoding="utf-8"?>
<!-- Generator: Adobe Illustrator 19.2.1, SVG Export Plug-In . SVG Version: 6.00 Build 0)  -->
<svg version="1.1" id="Layer_1" xmlns="http://www.w3.org/2000/svg" xmlns:xlink="http://www.w3.org/1999/xlink" x="0px" y="0px"
	 viewBox="0 0 230 227" style="enable-background:new 0 0 230 227;" xml:space="preserve">
<style type="text/css">
	.st0{fill:none;stroke:#4A4B56;stroke-width:3.5786;stroke-linecap:round;stroke-linejoin:round;stroke-miterlimit:10;}
</style>
<g>
	<path class="st0" d="M143.4,127.4l24.1-23.5c1.1-1.1,1.5-2.8,1.1-4.3c-0.5-1.5-1.8-2.6-3.4-2.8l-31.2-4.5L120.1,64
		c-0.7-1.4-2.1-2.3-3.7-2.3s-3,0.9-3.7,2.3L98.7,92.2l-31.2,4.5c-1.6,0.2-2.9,1.3-3.4,2.8c-0.5,1.5-0.1,3.2,1.1,4.3l22.5,22l-5.3,31
		c-0.3,1.6,0.4,3.1,1.7,4.1c0.7,0.5,1.6,0.8,2.4,0.8c0.7,0,1.3-0.2,1.9-0.5l27.9-14.6l27.9,14.6c1.4,0.7,3.1,0.6,4.4-0.3
		c1.3-0.9,1.9-2.5,1.7-4.1l-1.9-11.1"/>
	<path class="st0" d="M115,219.8L115,219.8c-58.4,0-106.3-47.8-106.3-106.3v0C8.7,55.1,56.6,7.2,115,7.2h0
		c58.4,0,106.3,47.8,106.3,106.3v0C221.3,171.9,173.4,219.8,115,219.8z"/>
</g>
</svg>
