<?xml version="1.0" encoding="utf-8"?>
<!-- Generator: Adobe Illustrator 19.2.1, SVG Export Plug-In . SVG Version: 6.00 Build 0)  -->
<svg version="1.1" id="Layer_1" xmlns="http://www.w3.org/2000/svg" xmlns:xlink="http://www.w3.org/1999/xlink" x="0px" y="0px"
	 viewBox="0 0 230 227" style="enable-background:new 0 0 230 227;" xml:space="preserve">
<style type="text/css">
	.st0{fill:none;stroke:#4A4B56;stroke-width:3.4194;stroke-linecap:round;stroke-linejoin:round;stroke-miterlimit:10;}
	.st1{fill:none;stroke:#4A4B56;stroke-width:3.0575;stroke-linecap:round;stroke-linejoin:round;stroke-miterlimit:10;}
	.st2{fill:none;stroke:#4A4B56;stroke-width:2.1269;stroke-linecap:round;stroke-linejoin:round;stroke-miterlimit:10;}
</style>
<g>
	<path class="st0" d="M115,220.1L115,220.1c-58.6,0-106.6-48-106.6-106.6v0C8.4,54.9,56.4,6.9,115,6.9h0
		c58.6,0,106.6,48,106.6,106.6v0C221.6,172.1,173.6,220.1,115,220.1z"/>
	<path class="st1" d="M171.1,89.1l-26.5-26.5c-2.8-2.8-7.3-2.8-10,0c-2.8,2.8-2.8,7.3,0,10l2.7,2.7c0.5,0.5,0.8,1.3,0.8,2
		c0,0.7-0.3,1.4-0.8,2c-1.1,1.1-2.9,1.1-4,0l-8.4-8.4c-2.8-2.8-7.3-2.8-10,0c-2.8,2.8-2.8,7.3,0,10l8.4,8.4c0.5,0.5,0.8,1.3,0.8,2
		c0,0.7-0.3,1.4-0.8,2c-1.1,1.1-2.9,1.1-4,0L104.1,78c-2.8-2.8-7.3-2.8-10,0s-2.8,7.3,0,10l15.4,15.4c0.5,0.5,0.8,1.3,0.8,2
		c0,0.7-0.3,1.4-0.8,2c-1.1,1.1-2.9,1.1-4,0L73.2,75.2c-3-3-6-4.6-8.6-4.6c-1.6,0-3,0.6-4.2,1.8c-1.3,1.3-2.1,3.1-2.1,5
		c0,1.9,0.7,3.7,2.1,5l49,49c0.6,0.6,0.9,1.5,0.8,2.4c-0.1,0.9-0.6,1.6-1.4,2.1l-29.7,16.9c-4.5,2.4-6.5,7.7-4.8,12.4
		c0.3,0.7,0.8,1.3,1.5,1.6c0.7,0.3,1.4,0.4,2.1,0.1c0,0,0.1,0,0.1,0l43.4-13.2c7.1-2.2,14.5-3.3,21.9-3.3c6.7,0,13.1-2.6,17.8-7.4
		l9.9-9.9c5.9-5.9,9.1-13.6,9.1-21.9"/>
	<polyline class="st1" points="61.3,138.7 69.7,147.1 78.3,138.4 	"/>
	<polyline class="st1" points="78.3,115 70,106.7 61.3,115.4 	"/>
	<line class="st2" x1="69.8" y1="120.4" x2="69.8" y2="133.7"/>
</g>
</svg>
