<?xml version="1.0" encoding="utf-8"?>
<!-- Generator: Adobe Illustrator 19.2.1, SVG Export Plug-In . SVG Version: 6.00 Build 0)  -->
<svg version="1.1" id="Layer_1" xmlns="http://www.w3.org/2000/svg" xmlns:xlink="http://www.w3.org/1999/xlink" x="0px" y="0px"
	 viewBox="0 0 230 227" style="enable-background:new 0 0 230 227;" xml:space="preserve">
<style type="text/css">
	.st0{fill:none;stroke:#4A4B56;stroke-width:3.6066;stroke-linecap:round;stroke-linejoin:round;stroke-miterlimit:10;}
	.st1{fill:none;stroke:#4A4B56;stroke-width:3.1609;stroke-linecap:round;stroke-linejoin:round;stroke-miterlimit:10;}
</style>
<g>
	<path class="st0" d="M115,220.6L115,220.6c-58.9,0-107.1-48.2-107.1-107.1v0C7.9,54.6,56.1,6.4,115,6.4h0
		c58.9,0,107.1,48.2,107.1,107.1v0C222.1,172.4,173.9,220.6,115,220.6z"/>
	<path class="st0" d="M140.8,130.8l22.5-21.9c1.1-1,1.4-2.6,1-4c-0.5-1.4-1.7-2.4-3.1-2.6l-29-4.2l-13-26.3c-0.7-1.3-2-2.2-3.5-2.2
		s-2.8,0.8-3.5,2.2L99.1,98l-29,4.2c-1.5,0.2-2.7,1.2-3.1,2.6c-0.5,1.4-0.1,2.9,1,4l21,20.5l-5,28.9c-0.3,1.5,0.3,2.9,1.5,3.8
		c0.7,0.5,1.5,0.7,2.3,0.7c0.6,0,1.2-0.1,1.8-0.4l26-13.7l26,13.7c1.3,0.7,2.9,0.6,4.1-0.3c1.2-0.9,1.8-2.3,1.5-3.8L140.8,130.8z"/>
	<path class="st1" d="M64.7,99.1l-8.4-17.1c-0.4-0.9-1.3-1.4-2.3-1.4s-1.8,0.5-2.3,1.4l-8.4,17.1l-18.8,2.7c-0.9,0.1-1.7,0.8-2,1.7
		c-0.3,0.9,0,1.9,0.6,2.6l14.6,14.2l-3,11.1l-1.2,6.7c-0.2,0.9,0.2,1.9,1,2.5c0.8,0.6,1.8,0.6,2.7,0.2L54,132l16.8,8.9
		c0.4,0.2,0.8,0.3,1.2,0.3c0.5,0,1-0.2,1.5-0.5c0.8-0.6,1.2-1.5,1-2.5l-3.2-18.8"/>
	<path class="st1" d="M160.2,119.4l-3.2,18.8c-0.2,0.9,0.2,1.9,1,2.5c0.4,0.3,1,0.5,1.5,0.5c0.4,0,0.8-0.1,1.2-0.3l16.8-8.9
		l16.8,8.9c0.8,0.4,1.9,0.4,2.7-0.2c0.8-0.6,1.2-1.5,1-2.5l-1.2-6.7l-3-11.1l14.6-14.2c0.7-0.7,0.9-1.7,0.6-2.6
		c-0.3-0.9-1.1-1.6-2-1.7l-18.8-2.7l-8.4-17.1c-0.4-0.9-1.3-1.4-2.3-1.4c-1,0-1.8,0.5-2.3,1.4l-8.4,17.1"/>
</g>
</svg>
