<?xml version="1.0" encoding="utf-8"?>
<!-- Generator: Adobe Illustrator 19.2.1, SVG Export Plug-In . SVG Version: 6.00 Build 0)  -->
<svg version="1.1" id="Layer_1" xmlns="http://www.w3.org/2000/svg" xmlns:xlink="http://www.w3.org/1999/xlink" x="0px" y="0px"
	 viewBox="0 0 230 227" style="enable-background:new 0 0 230 227;" xml:space="preserve">
<style type="text/css">
	.st0{fill:none;stroke:#4A4B56;stroke-width:3.3815;stroke-linecap:round;stroke-linejoin:round;stroke-miterlimit:10;}
</style>
<path class="st0" d="M117.4,216.7L117.4,216.7c-58,0-105.4-47.4-105.4-105.4l0,0C12,53.3,59.4,5.9,117.4,5.9l0,0
	c58,0,105.4,47.4,105.4,105.4l0,0C222.8,169.3,175.4,216.7,117.4,216.7z"/>
<g>
	<path class="st0" d="M88.9,132.1l3.7,9.2c0.5,1.4,2,2,3.4,1.7l9.5-2.8c0.9-0.3,2,0,2.6,0.6l7.3,6.7c1.1,0.9,2.8,0.9,3.7,0l7.3-6.7
		c0.8-0.6,1.7-0.9,2.6-0.6l9.5,2.8c1.4,0.5,3-0.3,3.4-1.7l3.7-9.2c0.3-0.9,1.2-1.6,2.2-1.7l9.8-1.6c1.4-0.2,2.5-1.6,2.3-3l-0.6-9.9
		c0-0.9,0.5-1.9,1.2-2.5l8.1-5.6c1.2-0.8,1.6-2.5,0.8-3.7l-4.8-8.5c-0.5-0.9-0.5-1.9,0-2.8l4.8-8.5c0.8-1.2,0.3-3-0.8-3.7l-8.1-5.6
		c-0.8-0.6-1.2-1.6-1.2-2.5l0.6-9.8c0.2-1.4-0.9-2.8-2.3-3l-9.8-1.6c-0.9-0.2-1.9-0.8-2.2-1.7l-3.6-9.3c-0.5-1.4-2-2-3.4-1.7
		l-9.5,2.8c-0.9,0.3-2,0-2.6-0.6l-7.3-6.7c-1.1-0.9-2.8-0.9-3.7,0l-7.5,6.7c-0.8,0.6-1.7,0.9-2.6,0.6l-9.5-2.8
		c-1.4-0.5-3,0.3-3.4,1.7l-3.7,9.2c-0.3,0.9-1.2,1.6-2.2,1.7L77,59.6c-1.4,0.2-2.5,1.6-2.3,3l0.6,9.8c0,0.9-0.5,1.9-1.2,2.5L66,80.4
		c-1.2,0.8-1.6,2.5-0.8,3.7l4.8,8.5c0.5,0.9,0.5,1.9,0,2.8l-4.8,8.5c-0.8,1.2-0.3,3,0.8,3.7l8.1,5.6c0.8,0.6,1.2,1.6,1.2,2.5
		l-0.6,9.8c-0.2,1.4,0.9,2.8,2.3,3l9.8,1.6C87.7,130.5,88.5,131.1,88.9,132.1z M93,83.9l15.5-1.1l5.9-14.4c1.1-2.6,5-2.6,6.1,0
		l5.9,14.4l15.5,1.1c3,0.2,4,3.9,1.9,5.7l-12,10.1l3.7,15.1c0.8,2.8-2.3,5.1-4.8,3.6l-13.4-8.2l-13.2,8.2c-2.5,1.6-5.6-0.8-4.8-3.6
		l3.7-15.1l-12-10.1C88.8,87.8,90,84.1,93,83.9z"/>
	<path class="st0" d="M140.6,149.5c-0.9,0-1.9-0.2-2.6-0.5l-7.5-2.3l-5.9,5.4c-0.2,0.2-0.5,0.3-0.6,0.5l9.3,28.9
		c0.3,0.9,1.7,1.2,2.3,0.5l6.8-8.7c0.3-0.5,0.9-0.6,1.4-0.5l10.6,3.1c1.1,0.3,2-0.6,1.6-1.7l-8.9-27.3
		C145.4,148.4,143.1,149.5,140.6,149.5z"/>
	<path class="st0" d="M78.5,175.7l10.6-3.1c0.5-0.2,1.1,0,1.4,0.5l6.8,8.7c0.6,0.8,2,0.6,2.3-0.5l9.3-28.9c-0.2-0.2-0.5-0.3-0.6-0.5
		l-5.7-5.3l-7.5,2.3c-0.9,0.3-1.7,0.5-2.6,0.5c-2.5,0-4.8-1.1-6.5-2.8L77.1,174C76.5,175.1,77.4,176,78.5,175.7z"/>
</g>
</svg>
