<?xml version="1.0" encoding="utf-8"?>
<!-- Generator: Adobe Illustrator 19.2.1, SVG Export Plug-In . SVG Version: 6.00 Build 0)  -->
<svg version="1.1" id="Layer_1" xmlns="http://www.w3.org/2000/svg" xmlns:xlink="http://www.w3.org/1999/xlink" x="0px" y="0px"
	 viewBox="0 0 230 227" style="enable-background:new 0 0 230 227;" xml:space="preserve">
<style type="text/css">
	.st0{fill:none;stroke:#4A4B56;stroke-width:3.1735;stroke-linecap:round;stroke-linejoin:round;stroke-miterlimit:10;}
	.st1{fill:#4A4B56;}
	.st2{fill:none;stroke:#4A4B56;stroke-width:3.402;stroke-linecap:round;stroke-linejoin:round;stroke-miterlimit:10;}
</style>
<rect x="80.1" y="107.8" class="st0" width="68.3" height="20.8"/>
<rect x="85.4" y="112.1" class="st1" width="3.1" height="12.2"/>
<path class="st0" d="M160.6,137.2V52.3c0-4.2-3.4-7.6-7.6-7.6h-2.2H104c-1.3,0-2.6,0.3-3.7,0.9c-0.8,0.5-1.6,1.1-2.2,1.8L69,83
	c-1.8,2.1-2.7,4.8-2.6,7.6l1.7,73c0.1,4.1,3.5,7.4,7.6,7.4h53.5h27.5l0,0c2.2,0,4-1.8,4-4V137.2z"/>
<path class="st0" d="M72.9,91.3h20.5c7.2,0,13.1-5.8,13.1-13v-29"/>
<path class="st2" d="M115,220L115,220c-58.3,0-106-47.7-106-106v0c0-58.3,47.7-106,106-106h0c58.3,0,106,47.7,106,106v0
	C221,172.3,173.3,220,115,220z"/>
<rect x="94" y="112.1" class="st1" width="3.1" height="12.2"/>
<rect x="102.5" y="112.1" class="st1" width="3.1" height="12.2"/>
<rect x="111.1" y="112.1" class="st1" width="3.1" height="12.2"/>
<rect x="120.1" y="112.1" class="st1" width="3.1" height="12.2"/>
</svg>
