<?xml version="1.0" encoding="utf-8"?>
<!-- Generator: Adobe Illustrator 19.2.1, SVG Export Plug-In . SVG Version: 6.00 Build 0)  -->
<svg version="1.1" id="Layer_1" xmlns="http://www.w3.org/2000/svg" xmlns:xlink="http://www.w3.org/1999/xlink" x="0px" y="0px"
	 viewBox="0 0 230 227" style="enable-background:new 0 0 230 227;" xml:space="preserve">
<style type="text/css">
	.st0{fill:none;stroke:#4A4B56;stroke-width:3.3815;stroke-linecap:round;stroke-linejoin:round;stroke-miterlimit:10;}
	.st1{fill:none;stroke:#4A4B56;stroke-width:3.2654;stroke-linecap:round;stroke-linejoin:round;stroke-miterlimit:10;}
	.st2{fill:none;stroke:#4A4B56;stroke-width:3.3815;stroke-linejoin:round;stroke-miterlimit:10;}
	.st3{fill:none;stroke:#4A4B56;stroke-width:3.1032;stroke-linejoin:round;stroke-miterlimit:10;}
	.st4{fill:none;stroke:#4A4B56;stroke-width:2.2971;stroke-linecap:round;stroke-linejoin:round;stroke-miterlimit:10;}
</style>
<path class="st0" d="M166.1,174.7c0,3.2-2.6,5.9-5.9,5.9H71.1c-3.2,0-5.9-2.6-5.9-5.9v-109c0-3.2,2.6-5.9,5.9-5.9h13.7"/>
<line class="st0" x1="166.1" y1="130.2" x2="166.1" y2="156.9"/>
<path class="st0" d="M146.5,59.8h13.7c3.2,0,5.9,2.6,5.9,5.9V148"/>
<path class="st1" d="M127.3,51.1h7.7c3.1,0,5.7,1.9,5.7,4.1v10.9c0,2.3-2.6,4.1-5.7,4.1H95.9c-3.1,0-5.7-1.9-5.7-4.1V55.3
	c0-2.3,2.6-4.1,5.7-4.1h8.6H127.3z"/>
<path class="st2" d="M106.6,52c0-5.4,4.4-9.8,9.8-9.8c5.4,0,9.8,4.4,9.8,9.8"/>
<rect x="84.8" y="88" class="st3" width="18.1" height="18.1"/>
<rect x="84.8" y="119.3" class="st3" width="18.1" height="18.1"/>
<rect x="84.3" y="148.8" class="st3" width="18.1" height="18.1"/>
<line class="st0" x1="110.4" y1="97.6" x2="146.9" y2="97.6"/>
<line class="st0" x1="110.6" y1="129.6" x2="147.2" y2="129.6"/>
<line class="st0" x1="110.8" y1="158.2" x2="147.4" y2="158.2"/>
<path class="st0" d="M113.6,220L113.6,220c-58,0-105.4-47.4-105.4-105.4v0c0-58,47.4-105.4,105.4-105.4h0
	c58,0,105.4,47.4,105.4,105.4v0C219,172.6,171.6,220,113.6,220z"/>
<line class="st4" x1="90.1" y1="93.3" x2="97.8" y2="101.1"/>
<line class="st4" x1="89.9" y1="101.5" x2="97.7" y2="93.7"/>
</svg>
