<?xml version="1.0" encoding="utf-8"?>
<!-- Generator: Adobe Illustrator 19.2.1, SVG Export Plug-In . SVG Version: 6.00 Build 0)  -->
<svg version="1.1" id="Layer_1" xmlns="http://www.w3.org/2000/svg" xmlns:xlink="http://www.w3.org/1999/xlink" x="0px" y="0px"
	 viewBox="0 0 230 227" style="enable-background:new 0 0 230 227;" xml:space="preserve">
<style type="text/css">
	.st0{fill:none;stroke:#4A4B56;stroke-width:3.1745;stroke-linecap:round;stroke-linejoin:round;stroke-miterlimit:10;}
	.st1{fill:none;stroke:#4A4B56;stroke-width:3.403;stroke-linecap:round;stroke-linejoin:round;stroke-miterlimit:10;}
	.st2{fill:none;stroke:url(#SVGID_1_);stroke-width:2.7812;stroke-linecap:round;stroke-linejoin:round;stroke-miterlimit:10;}
</style>
<path class="st0" d="M127.7,172.9H74.2c-4.1,0-7.5-3.3-7.6-7.4l-1.7-74.5c0-1.8,0.6-3.6,1.7-5l30-36.7c0.6-0.8,1.4-1.4,2.2-1.8
	c1.1-0.6,2.4-0.9,3.7-0.9h46.8h2.2c4.2,0,7.6,3.4,7.6,7.6V139"/>
<path class="st0" d="M70.2,93.2h20.5c7.2,0,13.1-5.8,13.1-13.1V51.1"/>
<path class="st1" d="M112.1,219.1L112.1,219.1C53.7,219.1,6,171.4,6,113v0C6,54.7,53.7,7,112.1,7h0C170.4,7,218.1,54.7,218.1,113v0
	C218.1,171.4,170.4,219.1,112.1,219.1z"/>
<linearGradient id="SVGID_1_" gradientUnits="userSpaceOnUse" x1="-614.8356" y1="-769.6822" x2="-576.1591" y2="-769.6822" gradientTransform="matrix(0.2896 -0.9571 -0.9571 -0.2896 -418.2943 -631.5489)">
	<stop  offset="0" style="stop-color:#FFFFFF"/>
	<stop  offset="0.1115" style="stop-color:#D8D9DB"/>
	<stop  offset="0.2567" style="stop-color:#ADAEB3"/>
	<stop  offset="0.4042" style="stop-color:#898A91"/>
	<stop  offset="0.5518" style="stop-color:#6E6E77"/>
	<stop  offset="0.7" style="stop-color:#5A5B65"/>
	<stop  offset="0.8489" style="stop-color:#4E4F5A"/>
	<stop  offset="1" style="stop-color:#4A4B56"/>
</linearGradient>
<path class="st2" d="M144.9,179.8c-9.5-2.9-14.9-12.9-12-22.4c2.9-9.5,12.9-14.9,22.4-12c3.2,1,5.9,2.7,8,5L152,165.7l-6.3-4.6"/>
</svg>
