<?xml version="1.0" encoding="utf-8"?>
<!-- Generator: Adobe Illustrator 19.2.1, SVG Export Plug-In . SVG Version: 6.00 Build 0)  -->
<svg version="1.1" id="Layer_1" xmlns="http://www.w3.org/2000/svg" xmlns:xlink="http://www.w3.org/1999/xlink" x="0px" y="0px"
	 viewBox="0 0 230 227" style="enable-background:new 0 0 230 227;" xml:space="preserve">
<style type="text/css">
	.st0{fill:none;stroke:#4A4B56;stroke-width:3.4514;stroke-linecap:round;stroke-linejoin:round;stroke-miterlimit:10;}
	.st1{fill:none;stroke:#4A4B56;stroke-width:2.7124;stroke-miterlimit:10;}
	.st2{fill:none;stroke:#4A4B56;stroke-width:2.7124;stroke-linecap:round;stroke-linejoin:round;stroke-miterlimit:10;}
	.st3{fill:none;stroke:#4A4B56;stroke-width:2.8702;stroke-linecap:round;stroke-linejoin:round;stroke-miterlimit:10;}
</style>
<g>
	<path class="st0" d="M115,221.1L115,221.1c-59.2,0-107.6-48.4-107.6-107.6v0C7.4,54.3,55.8,5.9,115,5.9h0
		c59.2,0,107.6,48.4,107.6,107.6v0C222.6,172.7,174.2,221.1,115,221.1z"/>
	<path class="st1" d="M161.9,171.9L161.9,171.9c-8.4,0-15.3-6.9-15.3-15.3v0c0-8.4,6.9-15.3,15.3-15.3h0c8.4,0,15.3,6.9,15.3,15.3v0
		C177.3,165,170.4,171.9,161.9,171.9z"/>
	<polygon class="st2" points="108.2,172.1 99.8,157.5 108.2,142.9 125.1,142.9 133.5,157.5 125.1,172.1 	"/>
	<path class="st2" d="M139,80.7H95c-3.8,0-6.8-3-6.8-6.8V58.4c0-3.8,3-6.8,6.8-6.8h44c3.8,0,6.8,3,6.8,6.8v15.5
		C145.8,77.7,142.8,80.7,139,80.7z"/>
	<polyline class="st3" points="63.5,124.6 68.8,129.9 74.3,124.4 	"/>
	<polyline class="st3" points="111.3,124 116.5,129.3 122,123.8 	"/>
	<polyline class="st3" points="153.8,124.5 159.1,129.8 164.6,124.3 	"/>
	<polyline class="st2" points="68.9,144.1 50.8,171.8 86.9,171.5 68.9,143.8 	"/>
	<line class="st3" x1="159.2" y1="97.5" x2="159.2" y2="118.9"/>
	<line class="st3" x1="69" y1="97.5" x2="107.7" y2="97.5"/>
	<line class="st3" x1="68.9" y1="118.9" x2="68.9" y2="97.5"/>
	<line class="st3" x1="116.6" y1="118.9" x2="116.6" y2="84.3"/>
	<line class="st3" x1="123.8" y1="97.5" x2="159" y2="97.5"/>
</g>
</svg>
