<?xml version="1.0" encoding="utf-8"?>
<!-- Generator: Adobe Illustrator 19.2.1, SVG Export Plug-In . SVG Version: 6.00 Build 0)  -->
<svg version="1.1" id="Layer_1" xmlns="http://www.w3.org/2000/svg" xmlns:xlink="http://www.w3.org/1999/xlink" x="0px" y="0px"
	 viewBox="0 0 230 227" style="enable-background:new 0 0 230 227;" xml:space="preserve">
<style type="text/css">
	.st0{fill:none;stroke:#4A4B56;stroke-width:3.3921;stroke-linecap:round;stroke-linejoin:round;stroke-miterlimit:10;}
	.st1{fill:none;stroke:#4A4B56;stroke-width:3.0423;stroke-linecap:round;stroke-linejoin:round;stroke-miterlimit:10;}
</style>
<path class="st0" d="M112.3,216.9L112.3,216.9c-58.2,0-105.7-47.6-105.7-105.7v0C6.5,53,54.1,5.4,112.3,5.4h0
	C170.4,5.4,218,53,218,111.2v0C218,169.3,170.4,216.9,112.3,216.9z"/>
<path class="st1" d="M165.5,146.7H134c-13.8,0-25.1-11.2-25.1-25.1v-15.1c0-13.8-11.2-25.1-25.1-25.1H52.4"/>
<polyline class="st1" points="164,158.5 175.7,146.8 163.5,134.7 "/>
<path class="st1" d="M102.9,137.9c-4.6,5.4-11.4,8.8-19.1,8.8H52.4"/>
<path class="st1" d="M165.5,81.4H134c-6.2,0-11.8,2.2-16.2,5.9"/>
<polyline class="st1" points="164,93.3 175.7,81.6 163.5,69.5 "/>
</svg>
