<?xml version="1.0" encoding="utf-8"?>
<!-- Generator: Adobe Illustrator 19.2.1, SVG Export Plug-In . SVG Version: 6.00 Build 0)  -->
<svg version="1.1" id="Layer_1" xmlns="http://www.w3.org/2000/svg" xmlns:xlink="http://www.w3.org/1999/xlink" x="0px" y="0px"
	 viewBox="0 0 230 227" style="enable-background:new 0 0 230 227;" xml:space="preserve">
<style type="text/css">
	.st0{fill:none;stroke:#4A4B56;stroke-width:3.2934;stroke-linecap:round;stroke-linejoin:round;stroke-miterlimit:10;}
	.st1{fill:none;stroke:#4A4B56;stroke-width:3.126;stroke-linecap:round;stroke-linejoin:round;stroke-miterlimit:10;}
	.st2{fill:none;stroke:#4A4B56;stroke-width:2.9448;stroke-linecap:round;stroke-linejoin:round;stroke-miterlimit:10;}
</style>
<g>
	<path class="st0" d="M115,216.2L115,216.2c-56.5,0-102.7-46.2-102.7-102.7v0C12.3,57,58.5,10.8,115,10.8h0
		c56.5,0,102.7,46.2,102.7,102.7v0C217.7,170,171.5,216.2,115,216.2z"/>
	<path class="st1" d="M156.1,140.5V56.8c0-4.1-3.4-7.5-7.5-7.5h-2.2h-46.1c-1.3,0-2.5,0.3-3.6,0.9c-0.8,0.5-1.6,1.1-2.2,1.8
		l-28.7,35c-1.7,2.1-2.6,4.8-2.6,7.5l1.7,71.9c0.1,4.1,3.4,7.3,7.5,7.3h52.7h27h0c2.2,0,3.9-1.8,3.9-3.9V140.5z"/>
	<path class="st1" d="M69.7,95.3h20.2c7.1,0,12.9-5.8,12.9-12.9V53.8"/>
	<polyline class="st2" points="136,152.8 144.1,144.8 135.7,136.4 	"/>
	<polyline class="st2" points="113.2,136.4 105.1,144.5 113.5,152.8 	"/>
	<line class="st2" x1="119.6" y1="162.7" x2="128.9" y2="125.4"/>
</g>
</svg>
